<svg width="198" height="234" viewBox="0 0 198 234" fill="none" xmlns="http://www.w3.org/2000/svg">
<path d="M78.9333 23.3333C27.3333 35.0667 -0.800019 93.4667 22.6666 139.867C28.9333 152.4 37.2 162.133 67.8667 192.667L97.3333 222L125.467 194C155.067 164.4 165.2 152.533 171.867 139.2C178.4 126.133 180.4 116.133 179.6 100C178.533 77.2 170.667 60 154.533 44.8C138.533 29.6 122.267 22.6667 100.667 21.8667C92.1333 21.6 84.4 22 78.9333 23.3333ZM113.467 42.1333C125.467 45.7333 133.6 50.5333 142.267 59.4667C170.667 88.4 165.2 135.2 130.667 157.333C111.467 169.6 83.0667 169.733 64 157.6C42.8 144.133 30.6666 118.267 34.4 94.2667C38.2666 68.8 60 45.4667 84 40.9333C91.7333 39.6 106.667 40.1333 113.467 42.1333Z" fill="#0A2973"/>
<circle cx="97.5" cy="101.5" r="65.5" fill="white"/>
<g clip-path="url(#clip0_1_2)">
<path d="M122.053 127.961H53L57.6676 114.472H126.715L122.053 127.961ZM129.523 107.725H60.4703L65.443 94.236H134.185L129.523 107.725ZM136.988 87.4888H67.935L72.9134 73.9944H141.966L136.988 87.4888Z" fill="#009DE0"/>
</g>
<defs>
<clipPath id="clip0_1_2">
<rect width="89" height="54" fill="white" transform="translate(53 74)"/>
</clipPath>
</defs>
</svg>
